<svg id="Layer_1" data-name="Layer 1" xmlns="http://www.w3.org/2000/svg" viewBox="0 0 110 110"><defs><style>.cls-1{fill:none;stroke:#000;stroke-linecap:round;stroke-linejoin:round;stroke-width:6.49px;}.cls-2{fill:#231f20;}</style></defs><path class="cls-1" d="M96.46,59.9A41.73,41.73,0,0,0,50,13.91,26.09,26.09,0,0,0,13.46,50a43.88,43.88,0,0,0-.36,5.41,41.8,41.8,0,0,0,41.8,41.8A41.2,41.2,0,0,0,61,96.76,26.08,26.08,0,0,0,96.46,59.9Z"/><path class="cls-2" d="M40.9,79.27a13.76,13.76,0,0,1-2.46-1.62,5,5,0,0,1-1-6.12,4,4,0,0,1,3-1.75A8.55,8.55,0,0,1,45.33,71a20,20,0,0,0,5.36,2.13c3.23.64,6.45.89,9.46-.9a5.29,5.29,0,0,0,1.06-8.26,19,19,0,0,0-5.47-3.48c-3-1.46-6.18-2.59-9.18-4.1,0,0-.08,0-.13,0-1.11-.67-2.25-1.32-3.35-2a13.13,13.13,0,0,1-6.2-8.79,1.22,1.22,0,0,0-.18-.81l-.06-2.23a2,2,0,0,0,0-.93c0-.17,0-.33,0-.49a25.26,25.26,0,0,0,.72-2.58A13.4,13.4,0,0,1,43,31.8a22.53,22.53,0,0,1,9.44-3.18,37.36,37.36,0,0,1,11,.34,1.1,1.1,0,0,0,.26,0,31.2,31.2,0,0,1,3.88,1.23,6.55,6.55,0,0,1,3.5,3A4.33,4.33,0,0,1,69.13,39a4.42,4.42,0,0,1-3.76-.17A27.88,27.88,0,0,0,59.86,37c-3.35-.68-6.68-.84-9.82.9A5,5,0,0,0,49,46,17.45,17.45,0,0,0,53.94,49c3.33,1.52,6.8,2.7,10,4.46a26.18,26.18,0,0,1,5.7,4,15.69,15.69,0,0,1,2.75,4.21c.15.4.31.81.46,1.22a.29.29,0,0,0,.16.37,1.51,1.51,0,0,0,.1.69.19.19,0,0,0,.07.26.47.47,0,0,0,.08.4.18.18,0,0,0,0,.27,31,31,0,0,1-.14,5,.2.2,0,0,0-.06.27,13.57,13.57,0,0,1-8.36,9.8.28.28,0,0,0-.35.19,5.32,5.32,0,0,0-1.5.46.21.21,0,0,0-.26.09,6.78,6.78,0,0,0-1.72.43.36.36,0,0,0-.39.1.8.8,0,0,0-.53.06,1.39,1.39,0,0,0-.93.2,1.59,1.59,0,0,0-.78.07c-.19,0-.37-.08-.53.08l-.27,0a1,1,0,0,0-.79.08h-5.8a4.46,4.46,0,0,0-1.59-.19,1.72,1.72,0,0,0-.78-.07,1.65,1.65,0,0,0-1.06-.2.85.85,0,0,0-.52-.07.86.86,0,0,0-.67-.19.85.85,0,0,0-.52-.07.86.86,0,0,0-.67-.2.49.49,0,0,0-.39-.07.51.51,0,0,0-.53-.19l-.39-.08a.22.22,0,0,0-.27-.11.38.38,0,0,0-.4-.12.47.47,0,0,0-.39-.15.45.45,0,0,0-.4-.12.51.51,0,0,0-.39-.16.47.47,0,0,0-.39-.13.35.35,0,0,0-.41-.19Z"/></svg>