<svg width="15" height="15" viewBox="0 0 15 15" fill="none" xmlns="http://www.w3.org/2000/svg">
<g filter="url(#filter0_d_8_105)">
<path d="M9.01136 11.0104C7.83665 11.0939 7.83665 12.7975 9.01136 12.881H11.8006C12.1402 12.881 12.4631 12.7585 12.7137 12.5303C13.5376 11.8121 13.0978 10.3645 12.0122 10.2309C11.6225 7.88149 8.22079 8.77227 9.02806 11.0104" fill="white"/>
<path d="M9.01136 11.0104C7.83665 11.0939 7.83665 12.7975 9.01136 12.881H11.8006C12.1402 12.881 12.4631 12.7585 12.7137 12.5303C13.5376 11.8121 13.0978 10.3645 12.0122 10.2309C11.6225 7.88149 8.22079 8.77227 9.02806 11.0104" fill="white"/>
<path d="M12.5856 6.20568V8.58295C12.5856 8.7611 12.3017 8.83905 12.1792 8.711C11.9175 8.43819 11.5891 8.2322 11.2105 8.11529C10.3364 7.84249 9.3287 8.10972 8.69402 8.76667C8.29317 9.19536 8.07604 9.72983 8.06491 10.3088C8.06491 10.409 8.0148 10.4981 7.93686 10.5594C7.53601 10.8767 7.29104 11.3722 7.29104 11.9401V11.9456C7.29104 12.1238 7.16299 12.2853 6.98484 12.2853H4.42385C2.78704 12.2908 1.45087 10.9546 1.45087 9.31227V3.61685C1.45087 2.25841 2.55321 1.15607 3.91165 1.15607H5.20328C6.11076 1.15607 6.3947 1.45114 6.75658 1.9355L7.53601 2.97103C7.7086 3.19929 7.73087 3.22713 8.05377 3.22713H9.60707C10.9321 3.22713 12.0567 4.09564 12.4409 5.29819C12.5244 5.54873 12.5689 5.80483 12.5801 6.07763C12.5856 6.1166 12.5856 6.16671 12.5856 6.20568Z" fill="white"/>
</g>
<defs>
<filter id="filter0_d_8_105" x="-0.139817" y="-0.434601" width="15.2705" height="15.2705" filterUnits="userSpaceOnUse" color-interpolation-filters="sRGB">
<feFlood flood-opacity="0" result="BackgroundImageFix"/>
<feColorMatrix in="SourceAlpha" type="matrix" values="0 0 0 0 0 0 0 0 0 0 0 0 0 0 0 0 0 0 127 0" result="hardAlpha"/>
<feOffset dx="0.477204" dy="0.477204"/>
<feGaussianBlur stdDeviation="0.477204"/>
<feComposite in2="hardAlpha" operator="out"/>
<feColorMatrix type="matrix" values="0 0 0 0 0 0 0 0 0 0 0 0 0 0 0 0 0 0 0.25 0"/>
<feBlend mode="normal" in2="BackgroundImageFix" result="effect1_dropShadow_8_105"/>
<feBlend mode="normal" in="SourceGraphic" in2="effect1_dropShadow_8_105" result="shape"/>
</filter>
</defs>
</svg>
