<svg id="Layer_1" data-name="Layer 1" xmlns="http://www.w3.org/2000/svg" viewBox="0 0 110 110"><defs><style>.cls-1{fill:#e9e95f;}.cls-2{fill:#252b66;}</style></defs><circle class="cls-1" cx="84.48" cy="66.96" r="24.22"/><path class="cls-2" d="M36.1,26.13a16.39,16.39,0,0,1,24.19,0A1.14,1.14,0,0,0,62,24.6a18.67,18.67,0,0,0-27.55,0,1.14,1.14,0,0,0,1.68,1.53Z"/><path class="cls-2" d="M79,65.7l0,0a27.59,27.59,0,0,0-3.25-1.1,18.67,18.67,0,1,0-13.93,0,26.33,26.33,0,0,0-4.28,1.56h0l0,0a26.78,26.78,0,0,0-9.09,7,26.73,26.73,0,0,0-10.08-7.4l-.13,0a26.93,26.93,0,0,0-3.21-1.09,18.66,18.66,0,1,0-13.91,0,26.11,26.11,0,0,0-4.29,1.56h0l0,0A26.67,26.67,0,0,0,1.3,90.34a1.14,1.14,0,0,0,2.27,0A24.41,24.41,0,0,1,17,68.54a19.77,19.77,0,0,0,2.55,1.77,16,16,0,0,0,8,2.3,13.83,13.83,0,0,0,5.4-1.12,17.92,17.92,0,0,0,5.1-3.4A24.41,24.41,0,0,1,46.93,75a26.52,26.52,0,0,0-4.88,15.37,1.14,1.14,0,0,0,2.28,0,24.4,24.4,0,0,1,13.41-21.8,20.26,20.26,0,0,0,2.54,1.77,16.1,16.1,0,0,0,8,2.3,13.83,13.83,0,0,0,5.4-1.12,17.92,17.92,0,0,0,5.1-3.4A24.42,24.42,0,0,1,93.14,90.34a1.14,1.14,0,0,0,2.27,0A26.7,26.7,0,0,0,79,65.7Zm-62.6-6.84A16.38,16.38,0,1,1,28,63.66,16.32,16.32,0,0,1,16.39,58.86ZM32,69.4a11.42,11.42,0,0,1-4.51.93,13.77,13.77,0,0,1-6.84-2c-.5-.29-.93-.58-1.31-.85a24.43,24.43,0,0,1,16.27-.34A14.88,14.88,0,0,1,32,69.4ZM57.15,58.86a16.38,16.38,0,1,1,11.58,4.8A16.32,16.32,0,0,1,57.15,58.86ZM72.78,69.4a11.42,11.42,0,0,1-4.51.93,13.77,13.77,0,0,1-6.84-2,15,15,0,0,1-1.31-.85,24.43,24.43,0,0,1,16.27-.34A15.07,15.07,0,0,1,72.78,69.4Z"/></svg>