<svg id="Layer_1" data-name="Layer 1" xmlns="http://www.w3.org/2000/svg" viewBox="0 0 110 110"><defs><style>.cls-1{fill:#e9e95f;}.cls-2{fill:#252b66;}</style></defs><circle class="cls-1" cx="78.13" cy="66.97" r="24.22" transform="translate(5.13 139.5) rotate(-85.42)"/><path class="cls-2" d="M80.6,55A36.48,36.48,0,0,0,45.89,18.57a1.1,1.1,0,0,0-.54,0c-.41,0-.81,0-1.22,0h0A36.46,36.46,0,0,0,11.51,38.68a1.51,1.51,0,0,0-.09.18,36.43,36.43,0,0,0,0,32.28,1.51,1.51,0,0,0,.09.18A36.46,36.46,0,0,0,44.13,91.47h.06c.39,0,.77,0,1.15,0a1.17,1.17,0,0,0,.42,0l.18,0A36.48,36.48,0,0,0,80.6,55ZM45.71,89.16h-.45V71.85h17.6A39.25,39.25,0,0,1,60,77.79a28.2,28.2,0,0,1-6.55,7.76A17,17,0,0,1,45.71,89.16ZM10,56.14H21.5a49.72,49.72,0,0,0,2.17,13.44H13.19A34,34,0,0,1,10,56.14Zm3.24-15.72H23.83a44.82,44.82,0,0,0-2.34,13.44H10A34,34,0,0,1,13.19,40.42ZM78.3,53.86H68.22a44.5,44.5,0,0,0-2.33-13.44h9.17A34,34,0,0,1,78.3,53.86ZM66,53.86H45.26V40.42H63.47A42,42,0,0,1,66,53.86ZM45.26,38.15V20.83h.14A34.06,34.06,0,0,1,61.13,35.29c.52.93,1,1.89,1.42,2.86Zm-2.27,0H27.17c.43-1,.9-1.93,1.41-2.86A33.88,33.88,0,0,1,43,21.48Zm0,2.27V53.86H23.77a42,42,0,0,1,2.48-13.44ZM23.78,56.14H43V69.58H26.06A47.32,47.32,0,0,1,23.78,56.14ZM43,71.85V89a17.34,17.34,0,0,1-6.74-3.4,31.51,31.51,0,0,1-9-12.8c-.13-.29-.23-.6-.35-.9Zm2.27-2.27V56.14H66a47.67,47.67,0,0,1-2.28,13.44ZM68.21,56.14H78.3a34,34,0,0,1-3.24,13.44h-9A50.1,50.1,0,0,0,68.21,56.14Zm5.67-18H65a35.07,35.07,0,0,0-1.9-4A35.8,35.8,0,0,0,51.41,21.58,34.18,34.18,0,0,1,73.88,38.15ZM19.94,30.82a34.19,34.19,0,0,1,19-9.63,35.89,35.89,0,0,0-12.32,13,37,37,0,0,0-1.91,4H14.37A34.43,34.43,0,0,1,19.94,30.82Zm-5.57,41H24.43A42.44,42.44,0,0,0,27.75,79a30.26,30.26,0,0,0,7.08,8.38q.6.48,1.23.9a34.07,34.07,0,0,1-16.12-9A34.43,34.43,0,0,1,14.37,71.85ZM54.56,87.57l.33-.24a33.83,33.83,0,0,0,9.72-13.71c.24-.58.46-1.17.68-1.77h8.59A34.16,34.16,0,0,1,54.56,87.57Z"/></svg>