<svg id="Layer_1" data-name="Layer 1" xmlns="http://www.w3.org/2000/svg" viewBox="0 0 110 110"><defs><style>.cls-1{fill:#e9e95f;}.cls-2{fill:#252b66;}</style></defs><circle class="cls-1" cx="80.9" cy="67.22" r="24.22"/><path class="cls-2" d="M58.37,60.38a21.72,21.72,0,0,0-14.94-40.8l-.15-.07A21.72,21.72,0,0,0,28.54,60.38,31.14,31.14,0,0,0,4.88,90.61a1.12,1.12,0,1,0,2.24,0A28.92,28.92,0,0,1,36,61.7a27.49,27.49,0,0,1,2.88.16A31.13,31.13,0,0,0,19.74,90.61a1.12,1.12,0,1,0,2.23,0A28.92,28.92,0,0,1,45.33,62.24v7.43a1.13,1.13,0,0,0,.33.79,1.17,1.17,0,0,0,.68.32l-3,10a.06.06,0,0,0,0,0,.49.49,0,0,0,0,.12.31.31,0,0,0,0,.1.49.49,0,0,0,0,.12s0,.06,0,.09l0,.12a.36.36,0,0,0,0,.09.54.54,0,0,0,.05.11s0,0,0,0l0,0,0,0L50,90.36a1.13,1.13,0,0,0,1.77,0l7-8.69a1.12,1.12,0,0,0,.21-1l-3.5-9.94a1.1,1.1,0,0,0,.93-1.1V62.24A28.92,28.92,0,0,1,79.79,90.61a1.12,1.12,0,0,0,2.24,0A31.15,31.15,0,0,0,58.37,60.38Zm6.15-34.11a19.62,19.62,0,1,1-13.87-5.75A19.55,19.55,0,0,1,64.52,26.27ZM21.8,54A19.63,19.63,0,0,1,35.68,20.52,20.16,20.16,0,0,1,40,21a21.89,21.89,0,0,0,0,38.28A19.63,19.63,0,0,1,21.8,54ZM54,68.93H47.31V62.25H54ZM50.92,87.87l-5.29-7.11,3-10h4.54l3.51,10Z"/></svg>