<svg id="Layer_1" data-name="Layer 1" xmlns="http://www.w3.org/2000/svg" viewBox="0 0 110 110"><defs><style>.cls-1{fill:#e9e95f;}.cls-2{fill:#252b66;}</style></defs><circle class="cls-1" cx="78.44" cy="66.98" r="24.22" transform="translate(5.41 139.81) rotate(-85.42)"/><path class="cls-2" d="M85.94,52.44a81.15,81.15,0,0,1-9.18-3.28,1,1,0,0,0,0-.17V28a9.9,9.9,0,0,0-2.48-6.65,8.23,8.23,0,0,0-6.13-2.81H16a8.23,8.23,0,0,0-6.13,2.81A10,10,0,0,0,7.34,28V82a10,10,0,0,0,2.49,6.65A8.23,8.23,0,0,0,16,91.49h52.2a8.23,8.23,0,0,0,6.13-2.81A9.9,9.9,0,0,0,76.77,82V77.81c3.51-3.46,7.1-8.88,8.89-17.12.1-.47.21-1.12.33-1.86.36-2.22.75-5.15.75-5.16A1.12,1.12,0,0,0,85.94,52.44ZM9.48,28a7.78,7.78,0,0,1,1.94-5.22A6.07,6.07,0,0,1,16,20.65h52.2a6.07,6.07,0,0,1,4.54,2.1A7.78,7.78,0,0,1,74.64,28v9.58H9.48V28ZM72.7,87.25a6.07,6.07,0,0,1-4.54,2.1H16a6.07,6.07,0,0,1-4.54-2.1A7.78,7.78,0,0,1,9.48,82V39.69H74.64v8.52c-.69-.32-1.33-.62-1.91-.92-1.55-.77-2.74-1.44-3.53-1.91l-.91-.55-.22-.15,0,0h0l-.14-.08-.06,0-.11,0a1.19,1.19,0,0,0-.32,0,1.12,1.12,0,0,0-.31,0,.35.35,0,0,0-.11,0l-.06,0-.14.08h0A47.87,47.87,0,0,1,62,47.3a1,1,0,0,0-.25,0H15.22a1.07,1.07,0,1,0,0,2.14H57.41a80.3,80.3,0,0,1-8.61,3,1.14,1.14,0,0,0-.8,1.23s.15,1.08.34,2.41H15.22a1.07,1.07,0,0,0,0,2.14H48.66l.09.61c.12.74.24,1.39.34,1.86a40.49,40.49,0,0,0,1.14,4.2h-35a1.07,1.07,0,1,0,0,2.14H51a32.72,32.72,0,0,0,3.52,6.64H15.22a1.07,1.07,0,1,0,0,2.14H56.14a27.93,27.93,0,0,0,3.42,3.45,21.63,21.63,0,0,0,7.52,4.28h.06l.12,0h.22l.12,0h.06a21.16,21.16,0,0,0,7-3.84V82A7.78,7.78,0,0,1,72.7,87.25Zm10.75-27c-2,9-6.1,14.27-9.72,17.32A22.35,22.35,0,0,1,69,80.6c-.61.29-1.11.48-1.44.6l-.2.07a20.73,20.73,0,0,1-6.53-3.88c-3.58-3.08-7.62-8.3-9.55-17.18-.08-.39-.19-1-.31-1.74-.17-1.09-.36-2.36-.5-3.37,0-.28-.08-.54-.11-.77a74.24,74.24,0,0,0,17-7.42,74.63,74.63,0,0,0,17,7.42c-.11.77-.27,1.9-.44,3S83.58,59.63,83.45,60.21Z"/><path class="cls-2" d="M74.9,57.62,65.93,68l-6.16-5.81a1.13,1.13,0,1,0-1.55,1.64l7,6.62a1.19,1.19,0,0,0,.84.31,1.14,1.14,0,0,0,.79-.39l9.75-11.3a1.13,1.13,0,0,0-1.71-1.48Z"/></svg>