<svg id="Layer_1" data-name="Layer 1" xmlns="http://www.w3.org/2000/svg" viewBox="0 0 110 110"><defs><style>.cls-1{fill:#e9e95f;}.cls-2{fill:#252b66;}</style></defs><circle class="cls-1" cx="75.11" cy="67.01" r="24.22"/><path class="cls-2" d="M59.19,71.33a23.89,23.89,0,0,1-23.61,0,1.14,1.14,0,0,0-1.13,2,26.17,26.17,0,0,0,25.87,0,1.14,1.14,0,0,0-1.13-2Z"/><path class="cls-2" d="M78,56.33V30.11a6.2,6.2,0,1,0-6,0V55.49a26.17,26.17,0,0,0-48.88-.71V30.11a6.2,6.2,0,1,0-6,0V56.26a8.76,8.76,0,0,0,2.3,17.21h3a1,1,0,0,0,.42-.09,26.13,26.13,0,0,0,6.42,9.9v7.1a1.14,1.14,0,0,0,1.14,1.14h34a1.16,1.16,0,0,0,1.15-1.14v-7a26.16,26.16,0,0,0,6.47-10,1,1,0,0,0,.42.09h3A8.76,8.76,0,0,0,78,56.33ZM72.21,21.91a3.9,3.9,0,1,1-1.15,2.77A3.88,3.88,0,0,1,72.21,21.91Zm3.46,9V55.94H74.28V30.88Zm-58.31-9a3.9,3.9,0,1,1-1.15,2.77A3.88,3.88,0,0,1,17.36,21.91Zm2.07,34V30.88h1.39V55.94H19.43Zm0,15.24a6.48,6.48,0,0,1,0-13H22a26.16,26.16,0,0,0,.11,13Zm43.8,18H31.53V84.16H63.24Zm.51-7.36H31.05L31,81.79h0a23.87,23.87,0,1,1,32.76.08ZM80,69.28a6.44,6.44,0,0,1-4.58,1.9H72.7a26.48,26.48,0,0,0,.87-6.71,26.2,26.2,0,0,0-.76-6.24h2.57A6.47,6.47,0,0,1,80,69.28Z"/><path class="cls-2" d="M59.89,53.4h-25a5.64,5.64,0,0,0,0,11.28h25a5.64,5.64,0,1,0,0-11.28Zm2.37,8a3.32,3.32,0,0,1-2.37,1h-25a3.35,3.35,0,1,1,0-6.7h25a3.35,3.35,0,0,1,2.37,5.72Z"/><path class="cls-2" d="M60,57.89H34.41a1.15,1.15,0,1,0,0,2.29H60a1.15,1.15,0,0,0,0-2.29Z"/></svg>