<svg id="Layer_1" data-name="Layer 1" xmlns="http://www.w3.org/2000/svg" viewBox="0 0 110 110"><defs><style>.cls-1{fill:#e9e95f;}.cls-2{fill:#252b66;}</style></defs><circle class="cls-1" cx="70.3" cy="67.26" r="24.22" transform="translate(-2.36 131.96) rotate(-85.42)"/><path class="cls-2" d="M59.45,56.88h6.26l.22,0a1.1,1.1,0,0,0,.4-.17h0a.92.92,0,0,0,.31-.31h0a1.1,1.1,0,0,0,.17-.4,1.5,1.5,0,0,0,0-.22V53.81A8.56,8.56,0,0,0,73,45.6h0a8.56,8.56,0,0,0-5.7-8.06A26.27,26.27,0,0,0,58.77,23.9a23.26,23.26,0,0,0-30.46.18,26.4,26.4,0,0,0-8.41,14,8.54,8.54,0,0,0-4.42,7.49h0A8.56,8.56,0,0,0,24,54.16h2.18A19.52,19.52,0,0,0,36.6,63.69a27.24,27.24,0,0,0-4.71,1.7,27.78,27.78,0,0,0-16,25.18,1.12,1.12,0,1,0,2.23,0A25.57,25.57,0,0,1,32.24,67.7L43,75.6l.08.05a.26.26,0,0,0,.09,0l.11,0,.09,0,.12,0,.07,0h.24l.13,0,.08,0,.12-.05.08,0,.1-.07.07,0,9.82-8.27a25.57,25.57,0,0,1,15,23.28,1.12,1.12,0,1,0,2.23,0A27.79,27.79,0,0,0,50.71,63.69,19.53,19.53,0,0,0,59.45,56.88Zm5.14-2.23H60.83c.1-.19.19-.38.29-.56a1.23,1.23,0,0,0,.39.07h3.08Zm6.14-9h0a6.35,6.35,0,0,1-6.33,6.33H62a19.43,19.43,0,0,0,0-12.66H64.4a6.35,6.35,0,0,1,6.33,6.33Zm-41-19.82a21.05,21.05,0,0,1,27.58-.17,24.08,24.08,0,0,1,7.47,11.45l-.41,0H61.51a1.23,1.23,0,0,0-.39.07A19.42,19.42,0,0,0,26.22,37H24a8.4,8.4,0,0,0-1.59.15A24,24,0,0,1,29.76,25.78ZM24,51.93a6.33,6.33,0,0,1-6.32-6.33h0A6.33,6.33,0,0,1,24,39.27h1.25a19.43,19.43,0,0,0,0,12.66ZM51.83,66.36,43.6,73.28l-9-6.61a25.61,25.61,0,0,1,17.22-.31Zm-8.18-3.58a17.19,17.19,0,1,1,14.6-8.13h-6V53.19a1.13,1.13,0,0,0-.33-.79,1.1,1.1,0,0,0-.79-.33H39.77a1.11,1.11,0,0,0-.79.33,1.13,1.13,0,0,0-.33.79v5.15a1.13,1.13,0,0,0,.33.79,1.15,1.15,0,0,0,.79.32H51.15a1.11,1.11,0,0,0,1.12-1.11V56.88H56.6c-.26.3-.52.59-.8.87A17.12,17.12,0,0,1,43.65,62.78Zm6.39-7v1.46H40.89V54.31H50Z"/></svg>